<svg width="30" height="31" viewBox="0 0 30 31" fill="none" xmlns="http://www.w3.org/2000/svg">
<path fill-rule="evenodd" clip-rule="evenodd" d="M28.0312 7.4075L16.1944 17.21C15.858 17.4887 15.4349 17.6412 14.9981 17.6412C14.5613 17.6412 14.1382 17.4887 13.8019 17.21L1.97063 7.4075C1.90714 7.59858 1.87485 7.79865 1.875 8V23C1.875 23.4973 2.07254 23.9742 2.42417 24.3258C2.77581 24.6775 3.25272 24.875 3.75 24.875H26.25C26.7473 24.875 27.2242 24.6775 27.5758 24.3258C27.9275 23.9742 28.125 23.4973 28.125 23V8C28.1257 7.79875 28.0941 7.59869 28.0312 7.4075ZM3.75 4.25H26.25C27.2446 4.25 28.1984 4.64509 28.9016 5.34835C29.6049 6.05161 30 7.00544 30 8V23C30 23.9946 29.6049 24.9484 28.9016 25.6516C28.1984 26.3549 27.2446 26.75 26.25 26.75H3.75C2.75544 26.75 1.80161 26.3549 1.09835 25.6516C0.395088 24.9484 0 23.9946 0 23V8C0 7.00544 0.395088 6.05161 1.09835 5.34835C1.80161 4.64509 2.75544 4.25 3.75 4.25ZM3.35625 6.125L13.8113 14.7556C14.1461 15.0322 14.5666 15.184 15.0009 15.185C15.4352 15.186 15.8563 15.0362 16.1925 14.7612L26.7525 6.125H3.35625Z" fill="#737373"/>
</svg>
