<svg width="30" height="31" viewBox="0 0 30 31" fill="none" xmlns="http://www.w3.org/2000/svg">
<path d="M21.25 13.3125H20.9375V10.5C20.9375 8.92528 20.3119 7.41505 19.1984 6.30155C18.0849 5.18806 16.5747 4.5625 15 4.5625C13.4253 4.5625 11.9151 5.18806 10.8016 6.30155C9.68806 7.41505 9.0625 8.92528 9.0625 10.5V13.3125H8.75C7.83832 13.3125 6.96398 13.6747 6.31932 14.3193C5.67466 14.964 5.3125 15.8383 5.3125 16.75V23C5.3125 23.9117 5.67466 24.786 6.31932 25.4307C6.96398 26.0753 7.83832 26.4375 8.75 26.4375H21.25C22.1617 26.4375 23.036 26.0753 23.6807 25.4307C24.3253 24.786 24.6875 23.9117 24.6875 23V16.75C24.6875 15.8383 24.3253 14.964 23.6807 14.3193C23.036 13.6747 22.1617 13.3125 21.25 13.3125ZM10.9375 10.5C10.9375 9.42256 11.3655 8.38925 12.1274 7.62738C12.8892 6.86551 13.9226 6.4375 15 6.4375C16.0774 6.4375 17.1108 6.86551 17.8726 7.62738C18.6345 8.38925 19.0625 9.42256 19.0625 10.5V13.3125H10.9375V10.5ZM22.8125 23C22.8125 23.4144 22.6479 23.8118 22.3549 24.1049C22.0618 24.3979 21.6644 24.5625 21.25 24.5625H8.75C8.3356 24.5625 7.93817 24.3979 7.64515 24.1049C7.35212 23.8118 7.1875 23.4144 7.1875 23V16.75C7.1875 16.3356 7.35212 15.9382 7.64515 15.6451C7.93817 15.3521 8.3356 15.1875 8.75 15.1875H21.25C21.6644 15.1875 22.0618 15.3521 22.3549 15.6451C22.6479 15.9382 22.8125 16.3356 22.8125 16.75V23Z" fill="#737373"/>
</svg>
