<svg width="30" height="31" viewBox="0 0 30 31" fill="none" xmlns="http://www.w3.org/2000/svg">
<g clip-path="url(#clip0_255_169)">
<path fill-rule="evenodd" clip-rule="evenodd" d="M7.16628 6.55375C8.68753 5.04125 11.1925 5.31 12.4663 7.0125L14.0438 9.1175C15.0813 10.5025 14.9888 12.4375 13.7575 13.6613L13.46 13.9588C13.4263 14.0836 13.4229 14.2148 13.45 14.3413C13.5288 14.8513 13.955 15.9313 15.74 17.7063C17.525 19.4813 18.6125 19.9063 19.13 19.9863C19.2604 20.0125 19.3951 20.0086 19.5238 19.975L20.0338 19.4675C21.1288 18.38 22.8088 18.1763 24.1638 18.9125L26.5513 20.2125C28.5975 21.3225 29.1138 24.1025 27.4388 25.7688L25.6625 27.5338C25.1025 28.09 24.35 28.5538 23.4325 28.64C21.17 28.8513 15.8988 28.5813 10.3575 23.0725C5.18628 17.93 4.19378 13.445 4.06753 11.235C4.00503 10.1175 4.53253 9.1725 5.20503 8.505L7.16628 6.55375ZM10.9663 8.13625C10.3325 7.29 9.15253 7.2225 8.48753 7.88375L6.52503 9.83375C6.11253 10.2438 5.91503 10.6963 5.94003 11.1288C6.04003 12.885 6.84003 16.9313 11.68 21.7438C16.7575 26.7913 21.4463 26.9425 23.2588 26.7725C23.6288 26.7388 23.9963 26.5463 24.34 26.205L26.115 24.4388C26.8375 23.7213 26.6788 22.4138 25.6563 21.8588L23.2688 20.56C22.6088 20.2025 21.8363 20.32 21.3563 20.7975L20.7875 21.3638L20.125 20.6988C20.7875 21.3638 20.7863 21.365 20.785 21.365L20.7838 21.3675L20.78 21.3713L20.7713 21.3788L20.7525 21.3963C20.6998 21.4452 20.6429 21.4896 20.5825 21.5288C20.4825 21.595 20.35 21.6688 20.1838 21.73C19.8463 21.8563 19.3988 21.9238 18.8463 21.8388C17.7625 21.6725 16.3263 20.9338 14.4175 19.0363C12.51 17.1388 11.765 15.7113 11.5975 14.6288C11.5113 14.0763 11.58 13.6288 11.7075 13.2913C11.7777 13.1013 11.8782 12.924 12.005 12.7663L12.045 12.7225L12.0625 12.7038L12.07 12.6963L12.0738 12.6925L12.0763 12.69L12.4363 12.3325C12.9713 11.7988 13.0463 10.915 12.5425 10.2413L10.9663 8.13625Z" fill="#737373"/>
</g>
<defs>
<clipPath id="clip0_255_169">
<rect width="30" height="30" fill="white" transform="translate(0 0.5)"/>
</clipPath>
</defs>
</svg>
